<svg xmlns="http://www.w3.org/2000/svg" version="1.1" xlink="http://www.w3.org/1999/xlink" xmlns:svgjs="http://svgjs.com/svgjs" width="100%" height="100%" viewBox="44.46699905395508 0 423.0660095214844 512"><g fill="#15cb70"><path d="M256 0C139.167 0 44.467 94.708 44.467 211.533 44.467 372.184 256 512 256 512s211.533-139.816 211.533-300.467C467.533 94.708 372.833 0 256 0zm0 375.941c-90.8 0-164.4-73.6-164.4-164.408 0-90.8 73.601-164.408 164.4-164.408s164.417 73.608 164.417 164.408c0 90.809-73.617 164.408-164.417 164.408z"></path><path d="M279.35 131.417L171.583 239.184c-17.283 17.283-17.283 45.3 0 62.583 17.275 17.267 45.292 17.267 62.575 0l107.767-107.783c17.283-17.267 17.283-45.283 0-62.566-17.276-17.285-45.291-17.285-62.575-.001zm48.674 48.666l-53.891 53.883-34.767-34.766 53.893-53.884c9.583-9.583 25.174-9.583 34.766 0 9.583 9.584 9.583 25.184-.001 34.767z"></path></g></svg>