<svg xmlns="http://www.w3.org/2000/svg" xmlns:xlink="http://www.w3.org/1999/xlink" width="250" zoomAndPan="magnify" viewBox="0 0 187.5 187.499992" height="250" preserveAspectRatio="xMidYMid meet" version="1.0"><defs><clipPath id="1bbfddeff0"><path d="M 20 2 L 173 2 L 173 187 L 20 187 Z M 20 2 " clip-rule="nonzero"/></clipPath></defs><g clip-path="url(#1bbfddeff0)"><path fill="#31e78c" d="M 168.21875 8.878906 C 160.632812 -0.0078125 146.667969 0.726562 140.066406 10.363281 C 109.097656 55.570312 83.429688 79.140625 83.429688 79.140625 C 73.976562 65.316406 59.777344 53.953125 48.222656 46.179688 C 38.632812 39.726562 25.527344 44.121094 21.769531 55.050781 L 21.722656 55.175781 C 18.800781 63.671875 22.789062 72.945312 30.90625 76.816406 C 75.722656 98.195312 82.765625 187.488281 82.765625 187.488281 C 100.335938 115.3125 147.105469 55.949219 168.042969 32.109375 C 173.867188 25.480469 173.945312 15.589844 168.21875 8.878906 Z M 93.828125 56.402344 C 104.800781 51.046875 109.355469 37.816406 103.996094 26.847656 C 98.640625 15.878906 85.398438 11.328125 74.425781 16.683594 C 63.449219 22.039062 58.894531 35.269531 64.253906 46.238281 C 69.613281 57.207031 82.851562 61.757812 93.828125 56.402344 " fill-opacity="1" fill-rule="nonzero"/></g></svg>