<?xml version="1.0" encoding="utf-8"?><!-- Uploaded to: SVG Repo, www.svgrepo.com, Generator: SVG Repo Mixer Tools -->
<svg fill="#000000" width="800px" height="800px" viewBox="0 -6 46 46" xmlns="http://www.w3.org/2000/svg">
  <path id="_18.Pictures-Day" data-name="18.Pictures-Day" d="M43,41H5a4,4,0,0,1-4-4V11A4,4,0,0,1,5,7H43a4,4,0,0,1,4,4V37A4,4,0,0,1,43,41Zm2-30a2,2,0,0,0-2-2H5a2,2,0,0,0-2,2V37a2,2,0,0,0,2,2H43a2,2,0,0,0,2-2ZM41.334,34.715,35,28.381,31.381,32l3.334,3.334a.977.977,0,0,1-1.381,1.381L19,22.381,6.666,34.715a.977.977,0,0,1-1.381-1.381l12.905-12.9a.9.9,0,0,1,.095-.144.918.918,0,0,1,1.525.144L30,30.619l4.19-4.19a1.023,1.023,0,0,1,.1-.144,1.05,1.05,0,0,1,1.43,0,1.023,1.023,0,0,1,.1.144l6.9,6.905a.977.977,0,0,1-1.381,1.381ZM29,19a4,4,0,1,1,4-4A4,4,0,0,1,29,19Zm0-6a2,2,0,1,0,2,2A2,2,0,0,0,29,13Z" transform="translate(-1 -7)" fill-rule="evenodd"/>
</svg>