<svg xmlns="http://www.w3.org/2000/svg" width="48" height="48" fill="none" id="ubuntu"><path fill="#DD4814" d="M24 48c13.255 0 24-10.745 24-24S37.255 0 24 0 0 10.745 0 24s10.745 24 24 24Z"></path><path fill="#fff" fill-rule="evenodd" d="M34.8 11.9c.857-1.499.35-3.415-1.133-4.28a3.083 3.083 0 0 0-4.234 1.147c-.855 1.498-.348 3.414 1.134 4.279a3.08 3.08 0 0 0 4.233-1.147ZM8.7 27.132c1.712 0 3.1-1.402 3.1-3.133 0-1.73-1.389-3.133-3.1-3.133-1.712 0-3.1 1.403-3.1 3.133s1.388 3.133 3.1 3.133ZM33.667 40.38a3.082 3.082 0 0 1-4.234-1.147 3.152 3.152 0 0 1 1.134-4.279A3.08 3.08 0 0 1 34.8 36.1c.857 1.499.348 3.415-1.133 4.28Zm-.552-17.172c-.396-4.563-4.185-8.142-8.804-8.142-1.33 0-2.592.297-3.724.83l-2.182-3.962a13.145 13.145 0 0 1 5.906-1.394c1.21 0 2.382.164 3.497.47a4.402 4.402 0 0 0 2.128 3.142 4.31 4.31 0 0 0 3.754.293 13.481 13.481 0 0 1 3.91 8.692l-4.485.071ZM15.472 24a8.951 8.951 0 0 1 3.758-7.311l-2.303-3.891a13.477 13.477 0 0 0-5.493 7.768A4.418 4.418 0 0 1 13.061 24a4.418 4.418 0 0 1-1.627 3.435 13.48 13.48 0 0 0 5.493 7.768l2.303-3.89A8.952 8.952 0 0 1 15.472 24Zm5.115 8.105a8.736 8.736 0 0 0 3.724.83c4.619 0 8.408-3.58 8.804-8.144l4.485.072a13.488 13.488 0 0 1-3.91 8.692 4.312 4.312 0 0 0-3.753.294 4.401 4.401 0 0 0-2.13 3.142c-1.114.306-2.285.47-3.496.47-2.12 0-4.125-.502-5.906-1.394l2.182-3.962Z" clip-rule="evenodd"></path></svg>