<?xml version="1.0" encoding="utf-8"?><!-- Uploaded to: SVG Repo, www.svgrepo.com, Generator: SVG Repo Mixer Tools -->
<svg fill="#000000" width="800px" height="800px" viewBox="0 -5 46 46" xmlns="http://www.w3.org/2000/svg">
  <path id="_23.Videos" data-name="23.Videos" d="M43,42H5a4,4,0,0,1-4-4V10A4,4,0,0,1,5,6H43a4,4,0,0,1,4,4V38A4,4,0,0,1,43,42ZM12,8H5a2,2,0,0,0-2,2v2h9ZM23,8H14v4h9ZM34,8H25v4h9Zm11,2a2,2,0,0,0-2-2H36v4h9Zm0,4H3V34H45Zm0,22H36v4H34V36H25v4H23V36H14v4H12V36H3v2a2,2,0,0,0,2,2H43a2,2,0,0,0,2-2ZM21.621,29.765A.987.987,0,0,1,21,30a1,1,0,0,1-1-1V19a1,1,0,0,1,1-1,.978.978,0,0,1,.563.2l7.771,4.872a.974.974,0,0,1,.261,1.715Z" transform="translate(-1 -6)" fill-rule="evenodd"/>
</svg>